<mxfile host="app.diagrams.net" modified="2020-07-12T07:59:57.776Z" agent="5.0 (Windows NT 10.0; Win64; x64) AppleWebKit/537.36 (KHTML, like Gecko) Chrome/83.0.4103.116 Safari/537.36" etag="pk01dIuAr4ZUjZg6T0KK" version="13.3.9" type="github" pages="2">
  <diagram id="jaIAoIuFn9sgBUdsIrmN" name="Page-1">
    <mxGraphModel dx="2287" dy="4161" grid="1" gridSize="10" guides="1" tooltips="1" connect="1" arrows="1" fold="1" page="1" pageScale="1" pageWidth="827" pageHeight="1169" math="0" shadow="0">
      <root>
        <mxCell id="0" />
        <mxCell id="1" parent="0" />
        <mxCell id="d2l36SgxxCWQD2PHcK56-109" value="" style="endArrow=classic;html=1;fillColor=#E6FFCC;entryX=1;entryY=1;entryDx=0;entryDy=0;exitX=0.242;exitY=0.036;exitDx=0;exitDy=0;exitPerimeter=0;" parent="1" source="d2l36SgxxCWQD2PHcK56-90" target="d2l36SgxxCWQD2PHcK56-107" edge="1">
          <mxGeometry width="50" height="50" relative="1" as="geometry">
            <mxPoint x="500" y="-2480" as="sourcePoint" />
            <mxPoint x="550" y="-2530" as="targetPoint" />
          </mxGeometry>
        </mxCell>
        <mxCell id="d2l36SgxxCWQD2PHcK56-63" value="" style="rounded=1;whiteSpace=wrap;html=1;fillColor=#CCE5FF;" parent="1" vertex="1">
          <mxGeometry x="500" y="-1960" width="580" height="280" as="geometry" />
        </mxCell>
        <mxCell id="d2l36SgxxCWQD2PHcK56-61" value="" style="rounded=1;whiteSpace=wrap;html=1;fillColor=#E5CCFF;" parent="1" vertex="1">
          <mxGeometry x="-10" y="-1890" width="500" height="350" as="geometry" />
        </mxCell>
        <mxCell id="d2l36SgxxCWQD2PHcK56-60" value="" style="rounded=1;whiteSpace=wrap;html=1;fillColor=#FFCCE6;" parent="1" vertex="1">
          <mxGeometry x="10" y="-2505" width="830" height="490" as="geometry" />
        </mxCell>
        <mxCell id="d2l36SgxxCWQD2PHcK56-6" value="" style="edgeStyle=orthogonalEdgeStyle;rounded=0;orthogonalLoop=1;jettySize=auto;html=1;" parent="1" source="d2l36SgxxCWQD2PHcK56-2" target="d2l36SgxxCWQD2PHcK56-5" edge="1">
          <mxGeometry relative="1" as="geometry">
            <Array as="points">
              <mxPoint x="370" y="-1860" />
              <mxPoint x="370" y="-1860" />
            </Array>
          </mxGeometry>
        </mxCell>
        <mxCell id="d2l36SgxxCWQD2PHcK56-9" value="" style="edgeStyle=orthogonalEdgeStyle;rounded=0;orthogonalLoop=1;jettySize=auto;html=1;exitX=0;exitY=1;exitDx=0;exitDy=0;" parent="1" source="d2l36SgxxCWQD2PHcK56-2" target="d2l36SgxxCWQD2PHcK56-8" edge="1">
          <mxGeometry relative="1" as="geometry" />
        </mxCell>
        <mxCell id="d2l36SgxxCWQD2PHcK56-35" value="" style="edgeStyle=orthogonalEdgeStyle;rounded=0;orthogonalLoop=1;jettySize=auto;html=1;" parent="1" source="d2l36SgxxCWQD2PHcK56-2" target="d2l36SgxxCWQD2PHcK56-34" edge="1">
          <mxGeometry relative="1" as="geometry" />
        </mxCell>
        <mxCell id="d2l36SgxxCWQD2PHcK56-2" value="&lt;font style=&quot;font-size: 18px&quot; color=&quot;#ffffff&quot;&gt;&lt;b&gt;메인페이지&lt;br&gt;index.jsp&lt;/b&gt;&lt;/font&gt;" style="rounded=0;whiteSpace=wrap;html=1;fillColor=#33001A;" parent="1" vertex="1">
          <mxGeometry x="310" y="-2000" width="120" height="60" as="geometry" />
        </mxCell>
        <mxCell id="d2l36SgxxCWQD2PHcK56-53" value="" style="edgeStyle=orthogonalEdgeStyle;rounded=0;orthogonalLoop=1;jettySize=auto;html=1;" parent="1" source="d2l36SgxxCWQD2PHcK56-34" target="d2l36SgxxCWQD2PHcK56-52" edge="1">
          <mxGeometry relative="1" as="geometry">
            <Array as="points">
              <mxPoint x="360" y="-2160" />
              <mxPoint x="460" y="-2160" />
            </Array>
          </mxGeometry>
        </mxCell>
        <mxCell id="d2l36SgxxCWQD2PHcK56-34" value="영화&lt;br&gt;movie.jsp" style="rounded=0;whiteSpace=wrap;html=1;fillColor=#FFFFFF;" parent="1" vertex="1">
          <mxGeometry x="300" y="-2090" width="120" height="60" as="geometry" />
        </mxCell>
        <mxCell id="d2l36SgxxCWQD2PHcK56-52" value="영화상영표&lt;br&gt;show.jsp&lt;br&gt;" style="rounded=0;whiteSpace=wrap;html=1;fillColor=#FFFFFF;" parent="1" vertex="1">
          <mxGeometry x="400" y="-2290" width="120" height="60" as="geometry" />
        </mxCell>
        <mxCell id="d2l36SgxxCWQD2PHcK56-59" value="" style="edgeStyle=orthogonalEdgeStyle;rounded=0;orthogonalLoop=1;jettySize=auto;html=1;" parent="1" source="d2l36SgxxCWQD2PHcK56-36" target="d2l36SgxxCWQD2PHcK56-58" edge="1">
          <mxGeometry relative="1" as="geometry">
            <Array as="points">
              <mxPoint x="760" y="-2060" />
            </Array>
          </mxGeometry>
        </mxCell>
        <mxCell id="d2l36SgxxCWQD2PHcK56-36" value="상영관&lt;br&gt;theater.jsp" style="rounded=0;whiteSpace=wrap;html=1;fillColor=#FFFFFF;" parent="1" vertex="1">
          <mxGeometry x="500" y="-2090" width="120" height="60" as="geometry" />
        </mxCell>
        <mxCell id="d2l36SgxxCWQD2PHcK56-81" value="" style="edgeStyle=orthogonalEdgeStyle;rounded=0;orthogonalLoop=1;jettySize=auto;html=1;fillColor=#E6FFCC;" parent="1" source="d2l36SgxxCWQD2PHcK56-58" edge="1">
          <mxGeometry relative="1" as="geometry">
            <mxPoint x="670" y="-2410" as="targetPoint" />
            <Array as="points">
              <mxPoint x="760" y="-2410" />
            </Array>
          </mxGeometry>
        </mxCell>
        <mxCell id="d2l36SgxxCWQD2PHcK56-58" value="좌석&lt;br&gt;seat.jsp&lt;br&gt;seat.do" style="rounded=0;whiteSpace=wrap;html=1;fillColor=#FFFFFF;" parent="1" vertex="1">
          <mxGeometry x="707" y="-2290" width="120" height="60" as="geometry" />
        </mxCell>
        <mxCell id="d2l36SgxxCWQD2PHcK56-38" value="이벤트&lt;br&gt;event.jsp" style="rounded=0;whiteSpace=wrap;html=1;fillColor=#FFFFFF;" parent="1" vertex="1">
          <mxGeometry x="90" y="-2090" width="120" height="60" as="geometry" />
        </mxCell>
        <mxCell id="d2l36SgxxCWQD2PHcK56-8" value="회원가입&lt;br&gt;join.jsp&lt;br&gt;join.do&lt;br&gt;join_result.jsp" style="rounded=0;whiteSpace=wrap;html=1;" parent="1" vertex="1">
          <mxGeometry x="20" y="-1813" width="120" height="60" as="geometry" />
        </mxCell>
        <mxCell id="d2l36SgxxCWQD2PHcK56-11" value="" style="edgeStyle=orthogonalEdgeStyle;rounded=0;orthogonalLoop=1;jettySize=auto;html=1;" parent="1" source="d2l36SgxxCWQD2PHcK56-5" target="d2l36SgxxCWQD2PHcK56-10" edge="1">
          <mxGeometry relative="1" as="geometry" />
        </mxCell>
        <mxCell id="d2l36SgxxCWQD2PHcK56-15" value="" style="edgeStyle=orthogonalEdgeStyle;rounded=0;orthogonalLoop=1;jettySize=auto;html=1;fillColor=#E6FFCC;" parent="1" source="d2l36SgxxCWQD2PHcK56-5" target="d2l36SgxxCWQD2PHcK56-14" edge="1">
          <mxGeometry relative="1" as="geometry" />
        </mxCell>
        <mxCell id="d2l36SgxxCWQD2PHcK56-5" value="로그인&lt;br&gt;login.jsp&lt;br&gt;login.do" style="shape=hexagon;perimeter=hexagonPerimeter2;whiteSpace=wrap;html=1;fillColor=#FFFFFF;" parent="1" vertex="1">
          <mxGeometry x="300" y="-1810" width="120" height="60" as="geometry" />
        </mxCell>
        <mxCell id="d2l36SgxxCWQD2PHcK56-24" value="" style="edgeStyle=orthogonalEdgeStyle;rounded=0;orthogonalLoop=1;jettySize=auto;html=1;" parent="1" source="d2l36SgxxCWQD2PHcK56-18" target="d2l36SgxxCWQD2PHcK56-23" edge="1">
          <mxGeometry relative="1" as="geometry" />
        </mxCell>
        <mxCell id="d2l36SgxxCWQD2PHcK56-28" value="" style="edgeStyle=orthogonalEdgeStyle;rounded=0;orthogonalLoop=1;jettySize=auto;html=1;" parent="1" source="d2l36SgxxCWQD2PHcK56-18" target="d2l36SgxxCWQD2PHcK56-27" edge="1">
          <mxGeometry relative="1" as="geometry" />
        </mxCell>
        <mxCell id="d2l36SgxxCWQD2PHcK56-18" value="내정보&lt;br&gt;info.jsp" style="rounded=0;whiteSpace=wrap;html=1;" parent="1" vertex="1">
          <mxGeometry x="520" y="-1950" width="120" height="60" as="geometry" />
        </mxCell>
        <mxCell id="d2l36SgxxCWQD2PHcK56-27" value="내정보&lt;br&gt;info.jsp" style="rounded=0;whiteSpace=wrap;html=1;" parent="1" vertex="1">
          <mxGeometry x="520" y="-1810" width="120" height="60" as="geometry" />
        </mxCell>
        <mxCell id="d2l36SgxxCWQD2PHcK56-31" value="" style="edgeStyle=orthogonalEdgeStyle;rounded=0;orthogonalLoop=1;jettySize=auto;html=1;" parent="1" source="d2l36SgxxCWQD2PHcK56-23" target="d2l36SgxxCWQD2PHcK56-30" edge="1">
          <mxGeometry relative="1" as="geometry" />
        </mxCell>
        <mxCell id="d2l36SgxxCWQD2PHcK56-33" value="" style="edgeStyle=orthogonalEdgeStyle;rounded=0;orthogonalLoop=1;jettySize=auto;html=1;" parent="1" source="d2l36SgxxCWQD2PHcK56-23" target="d2l36SgxxCWQD2PHcK56-32" edge="1">
          <mxGeometry relative="1" as="geometry" />
        </mxCell>
        <mxCell id="d2l36SgxxCWQD2PHcK56-23" value="비밀번호 검사&lt;br&gt;check.jsp&lt;br&gt;check.do" style="shape=hexagon;perimeter=hexagonPerimeter2;whiteSpace=wrap;html=1;fillColor=#FFFFFF;" parent="1" vertex="1">
          <mxGeometry x="720" y="-1950" width="120" height="60" as="geometry" />
        </mxCell>
        <mxCell id="d2l36SgxxCWQD2PHcK56-32" value="정보수정&lt;br&gt;change_info.jsp&lt;br&gt;change_info.do" style="rounded=0;whiteSpace=wrap;html=1;" parent="1" vertex="1">
          <mxGeometry x="720" y="-1810" width="120" height="60" as="geometry" />
        </mxCell>
        <mxCell id="d2l36SgxxCWQD2PHcK56-30" value="회원탈퇴&lt;br&gt;exit.jsp(goodbye)&lt;br&gt;exit.do" style="rounded=0;whiteSpace=wrap;html=1;" parent="1" vertex="1">
          <mxGeometry x="920" y="-1950" width="120" height="60" as="geometry" />
        </mxCell>
        <mxCell id="d2l36SgxxCWQD2PHcK56-25" value="비밀번호 변경&lt;br&gt;change_pw.jsp&lt;br&gt;change.pw.do&lt;br&gt;change_pw_result.jsp" style="rounded=0;whiteSpace=wrap;html=1;" parent="1" vertex="1">
          <mxGeometry x="520" y="-1810" width="120" height="60" as="geometry" />
        </mxCell>
        <mxCell id="d2l36SgxxCWQD2PHcK56-14" value="비밀번호 찾기&lt;br&gt;find_pw.jsp&lt;br&gt;find_pw.do&lt;br&gt;find_pw_result.jsp" style="rounded=0;whiteSpace=wrap;html=1;" parent="1" vertex="1">
          <mxGeometry x="120" y="-1670" width="120" height="60" as="geometry" />
        </mxCell>
        <mxCell id="d2l36SgxxCWQD2PHcK56-10" value="아이디찾기&lt;br&gt;find_id.jsp&lt;br&gt;fiind_id.do&lt;br&gt;find_id_result.jsp" style="rounded=0;whiteSpace=wrap;html=1;" parent="1" vertex="1">
          <mxGeometry x="300" y="-1670" width="120" height="60" as="geometry" />
        </mxCell>
        <mxCell id="d2l36SgxxCWQD2PHcK56-16" value="" style="endArrow=classic;startArrow=classic;html=1;entryX=0;entryY=0.5;entryDx=0;entryDy=0;exitX=1;exitY=0.5;exitDx=0;exitDy=0;" parent="1" source="d2l36SgxxCWQD2PHcK56-14" target="d2l36SgxxCWQD2PHcK56-10" edge="1">
          <mxGeometry width="50" height="50" relative="1" as="geometry">
            <mxPoint x="240" y="-1760" as="sourcePoint" />
            <mxPoint x="290" y="-1810" as="targetPoint" />
            <Array as="points">
              <mxPoint x="270" y="-1640" />
            </Array>
          </mxGeometry>
        </mxCell>
        <mxCell id="d2l36SgxxCWQD2PHcK56-17" value="" style="endArrow=classic;startArrow=classic;html=1;entryX=0.253;entryY=0.024;entryDx=0;entryDy=0;entryPerimeter=0;" parent="1" target="d2l36SgxxCWQD2PHcK56-5" edge="1">
          <mxGeometry width="50" height="50" relative="1" as="geometry">
            <mxPoint x="140" y="-1809" as="sourcePoint" />
            <mxPoint x="300" y="-1800" as="targetPoint" />
            <Array as="points">
              <mxPoint x="320" y="-1809" />
            </Array>
          </mxGeometry>
        </mxCell>
        <mxCell id="d2l36SgxxCWQD2PHcK56-20" value="" style="endArrow=classic;startArrow=classic;html=1;entryX=0;entryY=1;entryDx=0;entryDy=0;exitX=1;exitY=0.5;exitDx=0;exitDy=0;" parent="1" source="d2l36SgxxCWQD2PHcK56-5" target="d2l36SgxxCWQD2PHcK56-18" edge="1">
          <mxGeometry width="50" height="50" relative="1" as="geometry">
            <mxPoint x="430" y="-1810" as="sourcePoint" />
            <mxPoint x="490" y="-1810" as="targetPoint" />
          </mxGeometry>
        </mxCell>
        <mxCell id="d2l36SgxxCWQD2PHcK56-21" value="" style="endArrow=classic;html=1;exitX=1;exitY=0.5;exitDx=0;exitDy=0;" parent="1" source="d2l36SgxxCWQD2PHcK56-2" edge="1">
          <mxGeometry width="50" height="50" relative="1" as="geometry">
            <mxPoint x="440" y="-1760" as="sourcePoint" />
            <mxPoint x="520" y="-1920" as="targetPoint" />
          </mxGeometry>
        </mxCell>
        <mxCell id="d2l36SgxxCWQD2PHcK56-43" value="" style="endArrow=classic;startArrow=classic;html=1;exitX=1;exitY=0.5;exitDx=0;exitDy=0;" parent="1" source="d2l36SgxxCWQD2PHcK56-34" edge="1">
          <mxGeometry width="50" height="50" relative="1" as="geometry">
            <mxPoint x="470" y="-2040" as="sourcePoint" />
            <mxPoint x="500" y="-2060" as="targetPoint" />
          </mxGeometry>
        </mxCell>
        <mxCell id="d2l36SgxxCWQD2PHcK56-45" value="" style="endArrow=classic;html=1;entryX=0.5;entryY=1;entryDx=0;entryDy=0;exitX=1;exitY=0;exitDx=0;exitDy=0;" parent="1" source="d2l36SgxxCWQD2PHcK56-2" target="d2l36SgxxCWQD2PHcK56-36" edge="1">
          <mxGeometry width="50" height="50" relative="1" as="geometry">
            <mxPoint x="270" y="-1800" as="sourcePoint" />
            <mxPoint x="320" y="-1850" as="targetPoint" />
          </mxGeometry>
        </mxCell>
        <mxCell id="d2l36SgxxCWQD2PHcK56-50" value="" style="endArrow=classic;startArrow=classic;html=1;entryX=0;entryY=0.5;entryDx=0;entryDy=0;exitX=1;exitY=0.5;exitDx=0;exitDy=0;exitPerimeter=0;" parent="1" source="d2l36SgxxCWQD2PHcK56-38" target="d2l36SgxxCWQD2PHcK56-34" edge="1">
          <mxGeometry width="50" height="50" relative="1" as="geometry">
            <mxPoint x="220" y="-2060" as="sourcePoint" />
            <mxPoint x="320" y="-1850" as="targetPoint" />
          </mxGeometry>
        </mxCell>
        <mxCell id="d2l36SgxxCWQD2PHcK56-51" value="" style="endArrow=classic;html=1;entryX=0.75;entryY=1;entryDx=0;entryDy=0;exitX=0;exitY=0;exitDx=0;exitDy=0;" parent="1" source="d2l36SgxxCWQD2PHcK56-2" target="d2l36SgxxCWQD2PHcK56-38" edge="1">
          <mxGeometry width="50" height="50" relative="1" as="geometry">
            <mxPoint x="290" y="-1950" as="sourcePoint" />
            <mxPoint x="320" y="-1850" as="targetPoint" />
          </mxGeometry>
        </mxCell>
        <mxCell id="d2l36SgxxCWQD2PHcK56-57" value="" style="endArrow=none;html=1;exitX=0.5;exitY=0;exitDx=0;exitDy=0;" parent="1" source="d2l36SgxxCWQD2PHcK56-36" edge="1">
          <mxGeometry width="50" height="50" relative="1" as="geometry">
            <mxPoint x="370" y="-2090" as="sourcePoint" />
            <mxPoint x="460" y="-2160" as="targetPoint" />
            <Array as="points">
              <mxPoint x="560" y="-2160" />
            </Array>
          </mxGeometry>
        </mxCell>
        <mxCell id="d2l36SgxxCWQD2PHcK56-65" value="&lt;b&gt;&lt;font style=&quot;font-size: 36px&quot;&gt;menu&lt;br&gt;&lt;/font&gt;&lt;/b&gt;" style="text;html=1;strokeColor=none;fillColor=none;align=center;verticalAlign=middle;whiteSpace=wrap;rounded=0;" parent="1" vertex="1">
          <mxGeometry x="80" y="-2430" width="170" height="20" as="geometry" />
        </mxCell>
        <mxCell id="d2l36SgxxCWQD2PHcK56-66" value="&lt;h1&gt;&lt;font style=&quot;font-size: 36px&quot;&gt;비회원&lt;/font&gt;&lt;/h1&gt;" style="text;html=1;strokeColor=none;fillColor=none;spacing=5;spacingTop=-20;whiteSpace=wrap;overflow=hidden;rounded=0;" parent="1" vertex="1">
          <mxGeometry x="330" y="-1590" width="190" height="120" as="geometry" />
        </mxCell>
        <mxCell id="d2l36SgxxCWQD2PHcK56-68" value="&lt;font style=&quot;font-size: 36px&quot;&gt;&lt;b&gt;회원&lt;/b&gt;&lt;/font&gt;" style="text;html=1;strokeColor=none;fillColor=none;align=center;verticalAlign=middle;whiteSpace=wrap;rounded=0;" parent="1" vertex="1">
          <mxGeometry x="990" y="-1730" width="90" height="20" as="geometry" />
        </mxCell>
        <mxCell id="d2l36SgxxCWQD2PHcK56-83" value="" style="edgeStyle=orthogonalEdgeStyle;rounded=0;orthogonalLoop=1;jettySize=auto;html=1;fillColor=#E6FFCC;" parent="1" edge="1">
          <mxGeometry relative="1" as="geometry">
            <mxPoint x="605" y="-2450" as="sourcePoint" />
            <mxPoint x="605" y="-2530" as="targetPoint" />
          </mxGeometry>
        </mxCell>
        <mxCell id="d2l36SgxxCWQD2PHcK56-76" value="" style="endArrow=classic;html=1;fillColor=#E6FFCC;exitX=0.5;exitY=0;exitDx=0;exitDy=0;" parent="1" source="d2l36SgxxCWQD2PHcK56-52" target="d2l36SgxxCWQD2PHcK56-90" edge="1">
          <mxGeometry width="50" height="50" relative="1" as="geometry">
            <mxPoint x="820" y="-2170" as="sourcePoint" />
            <mxPoint x="540" y="-2410" as="targetPoint" />
            <Array as="points">
              <mxPoint x="460" y="-2410" />
            </Array>
          </mxGeometry>
        </mxCell>
        <mxCell id="d2l36SgxxCWQD2PHcK56-84" value="결제내역&lt;br&gt;pay.jsp" style="rounded=0;whiteSpace=wrap;html=1;fillColor=#FFFFFF;" parent="1" vertex="1">
          <mxGeometry x="550" y="-2590" width="120" height="60" as="geometry" />
        </mxCell>
        <mxCell id="d2l36SgxxCWQD2PHcK56-86" value="" style="endArrow=classic;html=1;fillColor=#E6FFCC;exitX=0.5;exitY=0;exitDx=0;exitDy=0;" parent="1" source="d2l36SgxxCWQD2PHcK56-34" target="d2l36SgxxCWQD2PHcK56-87" edge="1">
          <mxGeometry width="50" height="50" relative="1" as="geometry">
            <mxPoint x="360" y="-2095" as="sourcePoint" />
            <mxPoint x="280" y="-2240" as="targetPoint" />
          </mxGeometry>
        </mxCell>
        <mxCell id="d2l36SgxxCWQD2PHcK56-87" value="리뷰&lt;br&gt;review.jsp" style="rounded=0;whiteSpace=wrap;html=1;" parent="1" vertex="1">
          <mxGeometry x="210.00000000000023" y="-2290" width="120" height="60" as="geometry" />
        </mxCell>
        <mxCell id="d2l36SgxxCWQD2PHcK56-89" value="" style="endArrow=classic;html=1;fillColor=#E6FFCC;" parent="1" source="d2l36SgxxCWQD2PHcK56-91" edge="1">
          <mxGeometry width="50" height="50" relative="1" as="geometry">
            <mxPoint x="910" y="-1957" as="sourcePoint" />
            <mxPoint x="640" y="-2450" as="targetPoint" />
            <Array as="points">
              <mxPoint x="910" y="-2450" />
            </Array>
          </mxGeometry>
        </mxCell>
        <mxCell id="d2l36SgxxCWQD2PHcK56-90" value="예매&lt;br&gt;reser.jsp&lt;br&gt;reser.do&lt;br&gt;reser_result.jsp" style="shape=hexagon;perimeter=hexagonPerimeter2;whiteSpace=wrap;html=1;fillColor=#FFFFFF;" parent="1" vertex="1">
          <mxGeometry x="545" y="-2450" width="125" height="80" as="geometry" />
        </mxCell>
        <mxCell id="d2l36SgxxCWQD2PHcK56-91" value="할인" style="rhombus;whiteSpace=wrap;html=1;fillColor=#FFFFFF;" parent="1" vertex="1">
          <mxGeometry x="880" y="-2490" width="80" height="80" as="geometry" />
        </mxCell>
        <mxCell id="d2l36SgxxCWQD2PHcK56-92" value="" style="endArrow=classic;html=1;fillColor=#E6FFCC;" parent="1" target="d2l36SgxxCWQD2PHcK56-91" edge="1">
          <mxGeometry width="50" height="50" relative="1" as="geometry">
            <mxPoint x="920" y="-1959" as="sourcePoint" />
            <mxPoint x="640" y="-2450" as="targetPoint" />
            <Array as="points" />
          </mxGeometry>
        </mxCell>
        <mxCell id="d2l36SgxxCWQD2PHcK56-93" value="&lt;font style=&quot;font-size: 18px&quot; color=&quot;#ff0000&quot;&gt;&lt;b&gt;비회원 예매도 가능???&lt;/b&gt;&lt;/font&gt;" style="text;html=1;strokeColor=none;fillColor=none;align=center;verticalAlign=middle;whiteSpace=wrap;rounded=0;" parent="1" vertex="1">
          <mxGeometry x="537.5" y="-2520" width="140" height="70" as="geometry" />
        </mxCell>
        <mxCell id="d2l36SgxxCWQD2PHcK56-95" value="" style="endArrow=classic;html=1;fillColor=#E6FFCC;exitX=0.931;exitY=0;exitDx=0;exitDy=0;exitPerimeter=0;" parent="1" source="d2l36SgxxCWQD2PHcK56-63" edge="1">
          <mxGeometry width="50" height="50" relative="1" as="geometry">
            <mxPoint x="1040" y="-1970" as="sourcePoint" />
            <mxPoint x="670" y="-2560" as="targetPoint" />
            <Array as="points">
              <mxPoint x="1040" y="-2560" />
            </Array>
          </mxGeometry>
        </mxCell>
        <mxCell id="d2l36SgxxCWQD2PHcK56-98" value="&lt;font style=&quot;font-size: 18px&quot; color=&quot;#ff0000&quot;&gt;&lt;b&gt;내정보에서 결제내역 확인 가능???&lt;/b&gt;&lt;/font&gt;" style="text;html=1;strokeColor=none;fillColor=none;align=center;verticalAlign=middle;whiteSpace=wrap;rounded=0;" parent="1" vertex="1">
          <mxGeometry x="1000" y="-2580" width="110" height="80" as="geometry" />
        </mxCell>
        <mxCell id="d2l36SgxxCWQD2PHcK56-106" value="" style="endArrow=classic;startArrow=classic;html=1;fillColor=#E6FFCC;exitX=1;exitY=0;exitDx=0;exitDy=0;" parent="1" source="d2l36SgxxCWQD2PHcK56-25" edge="1">
          <mxGeometry width="50" height="50" relative="1" as="geometry">
            <mxPoint x="700" y="-1840" as="sourcePoint" />
            <mxPoint x="750" y="-1890" as="targetPoint" />
          </mxGeometry>
        </mxCell>
        <mxCell id="d2l36SgxxCWQD2PHcK56-107" value="구매&lt;br&gt;buy.jsp&lt;br&gt;buy.do" style="rounded=0;whiteSpace=wrap;html=1;fillColor=#FFFFFF;" parent="1" vertex="1">
          <mxGeometry x="280" y="-2730" width="120" height="60" as="geometry" />
        </mxCell>
        <mxCell id="d2l36SgxxCWQD2PHcK56-110" value="스낵&lt;br&gt;snack.jsp" style="rounded=0;whiteSpace=wrap;html=1;fillColor=#FFFFFF;" parent="1" vertex="1">
          <mxGeometry x="400" y="-2620" width="120" height="60" as="geometry" />
        </mxCell>
        <mxCell id="d2l36SgxxCWQD2PHcK56-115" value="&lt;font color=&quot;#ff0000&quot; style=&quot;font-size: 18px&quot;&gt;&lt;b&gt;스낵과 구매의 순서가 헷갈림!!&lt;/b&gt;&lt;/font&gt;" style="text;html=1;strokeColor=none;fillColor=none;align=center;verticalAlign=middle;whiteSpace=wrap;rounded=0;" parent="1" vertex="1">
          <mxGeometry x="370" y="-2690" width="140" height="100" as="geometry" />
        </mxCell>
        <mxCell id="d2l36SgxxCWQD2PHcK56-116" value="" style="endArrow=none;html=1;fillColor=#E6FFCC;exitX=0.278;exitY=1.002;exitDx=0;exitDy=0;exitPerimeter=0;entryX=0.626;entryY=0;entryDx=0;entryDy=0;entryPerimeter=0;" parent="1" source="d2l36SgxxCWQD2PHcK56-93" target="d2l36SgxxCWQD2PHcK56-60" edge="1">
          <mxGeometry width="50" height="50" relative="1" as="geometry">
            <mxPoint x="560" y="-2440" as="sourcePoint" />
            <mxPoint x="530" y="-2510" as="targetPoint" />
          </mxGeometry>
        </mxCell>
        <mxCell id="d2l36SgxxCWQD2PHcK56-117" value="&lt;b&gt;&lt;font style=&quot;font-size: 24px ; background-color: rgb(213 , 232 , 212)&quot;&gt;위아래로 움직일 때 스크롤휠&amp;nbsp; &amp;nbsp; 누르면서 움직이면 됩니다!!&amp;nbsp;&lt;br&gt;확대/축소는 ctrl+스크롤휠!!&lt;br&gt;&lt;/font&gt;&lt;/b&gt;" style="text;html=1;strokeColor=none;fillColor=none;align=center;verticalAlign=middle;whiteSpace=wrap;rounded=0;" parent="1" vertex="1">
          <mxGeometry x="610" y="-1610" width="360" height="130" as="geometry" />
        </mxCell>
      </root>
    </mxGraphModel>
  </diagram>
  <diagram id="8dzdnEKI80_pA96sxcA7" name="Page-2">
    <mxGraphModel dx="994" dy="473" grid="1" gridSize="10" guides="1" tooltips="1" connect="1" arrows="1" fold="1" page="1" pageScale="1" pageWidth="827" pageHeight="1169" math="0" shadow="0">
      <root>
        <mxCell id="h77jW1vCK-1qvmQ3Ix9d-0" />
        <mxCell id="h77jW1vCK-1qvmQ3Ix9d-1" parent="h77jW1vCK-1qvmQ3Ix9d-0" />
      </root>
    </mxGraphModel>
  </diagram>
</mxfile>
